{"title":"WWE The Monday Night War WWE vs WCW S01E09 WebRip x264-RGTS","uid":11234118,"size":171398858,"categoryP":"video","categoryS":"tv_shows","magnet":"?xt=urn:btih:9ef4873a4ed37e8b9f493bfc764ed78ad3f1ce56&amp;dn=WWE+The+Monday+Night+War+WWE+vs+WCW+S01E09+WebRip+x264-RGTS&amp;tr=udp%3A%2F%2Ftracker.openbittorrent.com%3A80&amp;tr=udp%3A%2F%2Fopen.demonii.com%3A1337&amp;tr=udp%3A%2F%2Ftracker.coppersurfer.tk%3A6969&amp;tr=udp%3A%2F%2Fexodus.desync.com%3A6969","seeders":0,"leechers":1,"uploader":"RDS31","files":1,"time":1413576645,"description":"General\nFormat                                   : MPEG-4\nFormat profile                           : Base Media\nCodec ID                                 : isom\nFile size                                : 163 MiB\nDuration                                 : 49mn 41s\nOverall bit rate mode                    : Variable\nOverall bit rate                         : 460 Kbps\nWriting application                      : Lavf56.4.101\n\nVideo\nID                                       : 1\nFormat                                   : AVC\nFormat/Info                              : Advanced Video Codec\nFormat profile                           : &lt;a class=&quot;__cf_email__&quot; href=&quot;/cdn-cgi/l/email-protection&quot; data-cfemail=&quot;94d6f5e7f1f8fdfaf1d4d8a6baa5&quot;&gt;[email&amp;#160;protected]&lt;/a&gt;&lt;script cf-hash='f9e31' type=&quot;text/javascript&quot;&gt;\n/* &lt;![CDATA[ */!function(){try{var t=&quot;currentScript&quot;in document?document.currentScript:function(){for(var t=document.getElementsByTagName(&quot;script&quot;),e=t.length;e--;)if(t[e].getAttribute(&quot;cf-hash&quot;))return t[e]}();if(t&amp;&amp;t.previousSibling){var e,r,n,i,c=t.previousSibling,a=c.getAttribute(&quot;data-cfemail&quot;);if(a){for(e=&quot;&quot;,r=parseInt(a.substr(0,2),16),n=2;a.length-n;n+=2)i=parseInt(a.substr(n,2),16)^r,e+=String.fromCharCode(i);e=document.createTextNode(e),c.parentNode.replaceChild(e,c)}}}catch(u){}}();/* ]]&gt; */&lt;/script&gt;\nFormat settings, CABAC                   : No\nFormat settings, ReFrames                : 3 frames\nCodec ID                                 : avc1\nCodec ID/Info                            : Advanced Video Coding\nDuration                                 : 49mn 41s\nBit rate                                 : 392 Kbps\nWidth                                    : 512 pixels\nHeight                                   : 288 pixels\nDisplay aspect ratio                     : 16:9\nFrame rate mode                          : Constant\nFrame rate                               : 29.970 fps\nColor space                              : YUV\nChroma subsampling                       : 4:2:0\nBit depth                                : 8 bits\nScan type                                : Progressive\nBits/(Pixel*Frame)                       : 0.089\nStream size                              : 139 MiB (85%)\nWriting library                          : x264 core 142 r2479 dd79a61\n\nAudio\nID                                       : 2\nFormat                                   : AAC\nFormat/Info                              : Advanced Audio Codec\nFormat profile                           : HE-AAC / LC\nCodec ID                                 : 40\nDuration                                 : 49mn 41s\nBit rate mode                            : Variable\nBit rate                                 : 64.0 Kbps\nMaximum bit rate                         : 440 Kbps\nChannel(s)                               : 2 channels\nChannel positions                        : Front: L R\nSampling rate                            : 44.1 KHz / 22.05 KHz\nCompression mode                         : Lossy\nStream size                              : 22.7 MiB (14%)\n\nEnjoy and Seed","torrent":{"xt":"urn:btih:9ef4873a4ed37e8b9f493bfc764ed78ad3f1ce56","amp;dn":"WWE+The+Monday+Night+War+WWE+vs+WCW+S01E09+WebRip+x264-RGTS","amp;tr":["udp%3A%2F%2Ftracker.openbittorrent.com%3A80","udp%3A%2F%2Fopen.demonii.com%3A1337","udp%3A%2F%2Ftracker.coppersurfer.tk%3A6969","udp%3A%2F%2Fexodus.desync.com%3A6969"],"infoHash":"9ef4873a4ed37e8b9f493bfc764ed78ad3f1ce56","infoHashBuffer":{"type":"Buffer","data":[158,244,135,58,78,211,126,139,159,73,59,252,118,78,215,138,211,241,206,86]},"announce":[],"urlList":[]}}